<mxfile host="app.diagrams.net" modified="2023-09-06T13:37:09.930Z" agent="Mozilla/5.0 (Windows NT 10.0; Win64; x64) AppleWebKit/537.36 (KHTML, like Gecko) Chrome/116.0.0.0 Safari/537.36" etag="1d4f-KsoSL6ml8IbA6wC" version="21.6.8" type="github">
  <diagram name="Page-1" id="58cdce13-f638-feb5-8d6f-7d28b1aa9fa0">
    <mxGraphModel dx="1434" dy="750" grid="1" gridSize="10" guides="1" tooltips="1" connect="1" arrows="1" fold="1" page="1" pageScale="1" pageWidth="1169" pageHeight="827" background="none" math="0" shadow="0">
      <root>
        <mxCell id="0" />
        <mxCell id="1" parent="0" />
        <mxCell id="W_ewYQk7HNQwRnbPACTs-3" value="null" style="rounded=1;whiteSpace=wrap;html=1;arcSize=40;labelBackgroundColor=none;" vertex="1" parent="1">
          <mxGeometry x="170" y="240" width="120" height="40" as="geometry" />
        </mxCell>
        <mxCell id="W_ewYQk7HNQwRnbPACTs-6" value="" style="endArrow=classic;html=1;rounded=0;exitX=0.5;exitY=1;exitDx=0;exitDy=0;entryX=0.25;entryY=1;entryDx=0;entryDy=0;" edge="1" parent="1" source="W_ewYQk7HNQwRnbPACTs-3" target="W_ewYQk7HNQwRnbPACTs-3">
          <mxGeometry relative="1" as="geometry">
            <mxPoint x="300" y="500" as="sourcePoint" />
            <mxPoint x="150" y="540" as="targetPoint" />
            <Array as="points">
              <mxPoint x="190" y="400" />
            </Array>
          </mxGeometry>
        </mxCell>
        <mxCell id="W_ewYQk7HNQwRnbPACTs-7" value="L0 en Dt" style="edgeLabel;resizable=0;html=1;align=center;verticalAlign=middle;" connectable="0" vertex="1" parent="W_ewYQk7HNQwRnbPACTs-6">
          <mxGeometry relative="1" as="geometry" />
        </mxCell>
        <mxCell id="W_ewYQk7HNQwRnbPACTs-8" value="&lt;h1 style=&quot;line-height: 50%;&quot;&gt;Legenda&lt;/h1&gt;&lt;p style=&quot;line-height: 80%;&quot;&gt;&lt;font style=&quot;font-size: 12px;&quot;&gt;L0: leeftijd &amp;lt; 28&lt;/font&gt;&lt;/p&gt;&lt;p style=&quot;line-height: 80%;&quot;&gt;&lt;font style=&quot;font-size: 12px;&quot;&gt;L1: 28 &amp;lt;= leeftijd &amp;lt; 70&lt;/font&gt;&lt;/p&gt;&lt;p style=&quot;line-height: 80%;&quot;&gt;&lt;font style=&quot;font-size: 12px;&quot;&gt;L2: 70 &amp;lt;= leeftijd &amp;lt; 183&lt;/font&gt;&lt;/p&gt;&lt;p style=&quot;line-height: 80%;&quot;&gt;&lt;font style=&quot;font-size: 12px;&quot;&gt;L3: 183 &amp;lt;= leeftijd &amp;lt; 365&lt;/font&gt;&lt;/p&gt;&lt;p style=&quot;line-height: 80%;&quot;&gt;&lt;font style=&quot;font-size: 12px;&quot;&gt;L4: 365 &amp;lt;= leeftijd&lt;/font&gt;&lt;/p&gt;&lt;p style=&quot;line-height: 80%;&quot;&gt;&lt;font style=&quot;font-size: 12px;&quot;&gt;&lt;br&gt;&lt;/font&gt;&lt;/p&gt;&lt;p style=&quot;line-height: 80%;&quot;&gt;&lt;font style=&quot;font-size: 12px;&quot;&gt;Df = DKTP 3-5-11 = false&lt;/font&gt;&lt;/p&gt;&lt;p style=&quot;line-height: 80%;&quot;&gt;&lt;font style=&quot;font-size: 12px;&quot;&gt;Dt = DKTP 3-5-11 = true&lt;/font&gt;&lt;/p&gt;&lt;p style=&quot;line-height: 80%;&quot;&gt;&lt;font style=&quot;font-size: 12px;&quot;&gt;&lt;br&gt;&lt;/font&gt;&lt;/p&gt;&lt;p style=&quot;line-height: 80%;&quot;&gt;&lt;font style=&quot;font-size: 12px;&quot;&gt;U0 = uitvoerdatum &amp;lt; 2020-01-01&lt;/font&gt;&lt;/p&gt;&lt;p style=&quot;line-height: 80%;&quot;&gt;&lt;font style=&quot;font-size: 12px;&quot;&gt;U1 = uitvoerdatum &amp;gt;= 2020-01-01&lt;/font&gt;&lt;/p&gt;&lt;p style=&quot;line-height: 80%;&quot;&gt;&lt;font style=&quot;font-size: 12px;&quot;&gt;&lt;br&gt;&lt;/font&gt;&lt;/p&gt;&lt;p style=&quot;line-height: 80%;&quot;&gt;&lt;font style=&quot;font-size: 12px;&quot;&gt;I(x) : Let op interval =x (d.w.z. null als kleiner dan desbetreffend interval, anders geldt desbetreffende pijl)&lt;/font&gt;&lt;/p&gt;&lt;p style=&quot;line-height: 80%;&quot;&gt;&lt;br&gt;&lt;/p&gt;" style="text;html=1;strokeColor=none;fillColor=none;spacing=5;spacingTop=-20;whiteSpace=wrap;overflow=hidden;rounded=0;" vertex="1" parent="1">
          <mxGeometry x="940" y="30" width="190" height="400" as="geometry" />
        </mxCell>
        <mxCell id="W_ewYQk7HNQwRnbPACTs-9" value="" style="endArrow=classic;html=1;rounded=0;exitX=0.25;exitY=1;exitDx=0;exitDy=0;entryX=0;entryY=1;entryDx=0;entryDy=0;" edge="1" parent="1" source="W_ewYQk7HNQwRnbPACTs-3" target="W_ewYQk7HNQwRnbPACTs-3">
          <mxGeometry relative="1" as="geometry">
            <mxPoint x="240" y="290" as="sourcePoint" />
            <mxPoint x="210" y="290" as="targetPoint" />
            <Array as="points">
              <mxPoint x="130" y="370" />
            </Array>
          </mxGeometry>
        </mxCell>
        <mxCell id="W_ewYQk7HNQwRnbPACTs-10" value="L0 en Df" style="edgeLabel;resizable=0;html=1;align=center;verticalAlign=middle;" connectable="0" vertex="1" parent="W_ewYQk7HNQwRnbPACTs-9">
          <mxGeometry relative="1" as="geometry" />
        </mxCell>
        <mxCell id="W_ewYQk7HNQwRnbPACTs-11" value="" style="endArrow=classic;html=1;rounded=0;exitX=0;exitY=0.75;exitDx=0;exitDy=0;entryX=0;entryY=0.25;entryDx=0;entryDy=0;" edge="1" parent="1" source="W_ewYQk7HNQwRnbPACTs-3" target="W_ewYQk7HNQwRnbPACTs-3">
          <mxGeometry relative="1" as="geometry">
            <mxPoint x="210" y="290" as="sourcePoint" />
            <mxPoint x="180" y="290" as="targetPoint" />
            <Array as="points">
              <mxPoint x="90" y="300" />
            </Array>
          </mxGeometry>
        </mxCell>
        <mxCell id="W_ewYQk7HNQwRnbPACTs-12" value="L1 en Dt" style="edgeLabel;resizable=0;html=1;align=center;verticalAlign=middle;" connectable="0" vertex="1" parent="W_ewYQk7HNQwRnbPACTs-11">
          <mxGeometry relative="1" as="geometry" />
        </mxCell>
        <mxCell id="W_ewYQk7HNQwRnbPACTs-13" value="1" style="rounded=1;whiteSpace=wrap;html=1;arcSize=40;labelBackgroundColor=none;" vertex="1" parent="1">
          <mxGeometry x="500" y="170" width="120" height="40" as="geometry" />
        </mxCell>
        <mxCell id="W_ewYQk7HNQwRnbPACTs-14" value="2" style="rounded=1;whiteSpace=wrap;html=1;arcSize=40;labelBackgroundColor=none;" vertex="1" parent="1">
          <mxGeometry x="490" y="450" width="120" height="40" as="geometry" />
        </mxCell>
        <mxCell id="W_ewYQk7HNQwRnbPACTs-15" value="3" style="rounded=1;whiteSpace=wrap;html=1;arcSize=40;labelBackgroundColor=none;" vertex="1" parent="1">
          <mxGeometry x="660" y="360" width="120" height="40" as="geometry" />
        </mxCell>
        <mxCell id="W_ewYQk7HNQwRnbPACTs-16" value="4" style="rounded=1;whiteSpace=wrap;html=1;arcSize=40;labelBackgroundColor=none;" vertex="1" parent="1">
          <mxGeometry x="780" y="230" width="120" height="40" as="geometry" />
        </mxCell>
        <mxCell id="W_ewYQk7HNQwRnbPACTs-19" value="" style="endArrow=classic;html=1;rounded=0;exitX=1;exitY=0.75;exitDx=0;exitDy=0;entryX=0;entryY=0.75;entryDx=0;entryDy=0;" edge="1" parent="1" source="W_ewYQk7HNQwRnbPACTs-3" target="W_ewYQk7HNQwRnbPACTs-13">
          <mxGeometry relative="1" as="geometry">
            <mxPoint x="340" y="310" as="sourcePoint" />
            <mxPoint x="440" y="310" as="targetPoint" />
          </mxGeometry>
        </mxCell>
        <mxCell id="W_ewYQk7HNQwRnbPACTs-20" value="L1 en Df" style="edgeLabel;resizable=0;html=1;align=center;verticalAlign=middle;" connectable="0" vertex="1" parent="W_ewYQk7HNQwRnbPACTs-19">
          <mxGeometry relative="1" as="geometry" />
        </mxCell>
        <mxCell id="W_ewYQk7HNQwRnbPACTs-23" value="" style="endArrow=classic;html=1;rounded=0;exitX=1;exitY=0.25;exitDx=0;exitDy=0;entryX=0;entryY=0.25;entryDx=0;entryDy=0;" edge="1" parent="1" source="W_ewYQk7HNQwRnbPACTs-3" target="W_ewYQk7HNQwRnbPACTs-13">
          <mxGeometry relative="1" as="geometry">
            <mxPoint x="300" y="280" as="sourcePoint" />
            <mxPoint x="510" y="210" as="targetPoint" />
          </mxGeometry>
        </mxCell>
        <mxCell id="W_ewYQk7HNQwRnbPACTs-24" value="L2 en Df" style="edgeLabel;resizable=0;html=1;align=center;verticalAlign=middle;" connectable="0" vertex="1" parent="W_ewYQk7HNQwRnbPACTs-23">
          <mxGeometry relative="1" as="geometry" />
        </mxCell>
        <mxCell id="W_ewYQk7HNQwRnbPACTs-25" value="" style="endArrow=classic;html=1;rounded=0;exitX=0.908;exitY=1.025;exitDx=0;exitDy=0;exitPerimeter=0;entryX=0;entryY=0;entryDx=0;entryDy=0;" edge="1" parent="1" source="W_ewYQk7HNQwRnbPACTs-3" target="W_ewYQk7HNQwRnbPACTs-14">
          <mxGeometry relative="1" as="geometry">
            <mxPoint x="250" y="470" as="sourcePoint" />
            <mxPoint x="350" y="470" as="targetPoint" />
          </mxGeometry>
        </mxCell>
        <mxCell id="W_ewYQk7HNQwRnbPACTs-26" value="L2 en Dt" style="edgeLabel;resizable=0;html=1;align=center;verticalAlign=middle;" connectable="0" vertex="1" parent="W_ewYQk7HNQwRnbPACTs-25">
          <mxGeometry relative="1" as="geometry">
            <mxPoint as="offset" />
          </mxGeometry>
        </mxCell>
      </root>
    </mxGraphModel>
  </diagram>
</mxfile>
